# xmcd
#
# Track frame offsets:
#	150
#	22255
#	41515
#	55392
#	91100
#	108818
#	132051
#	159693
#
# Disc length: 2383 seconds
#
# Revision: 0
# Processed by: cddbd v1.5.2PL0 Copyright (c) Steve Scherf et al.
# Submitted via: audiograbber 1.83.01
#
DISCID=60094d08
DTITLE=Golden Earring - Complete Studio Recordings [CD 08) - Together [remaster
DTITLE=ed 2017]
DYEAR=1972
DGENRE=Rock
TTITLE0=All Day Watcher
TTITLE1=Avalanche Of Love
TTITLE2=Cruisin' Southern Germany
TTITLE3=Brother Wind
TTITLE4=Buddy Joe
TTITLE5=Jangalene
TTITLE6=From Heaven From Hell
TTITLE7=Thousand Feet Below You
EXTD=
EXTT0=
EXTT1=
EXTT2=
EXTT3=
EXTT4=
EXTT5=
EXTT6=
EXTT7=
PLAYORDER=
